<svg aria-hidden="true" style="position: absolute; width: 0; height: 0; overflow: hidden;" version="1.1"
    xmlns="http://www.w3.org/2000/svg" xmlns:xlink="http://www.w3.org/1999/xlink">
    <defs>
        <symbol id="arrow-down" viewBox="0 0 70 32">
            <path stroke-linejoin="miter" stroke-linecap="round" stroke-miterlimit="4" stroke-width="6.4"
                d="M10.629 5.9l26.982 21.6"></path>
            <path stroke-linejoin="miter" stroke-linecap="round" stroke-miterlimit="4" stroke-width="6.4"
                d="M65.593 5.9l-26.982 21.6"></path>
        </symbol>
        <symbol id="arrow" viewBox="0 0 33 32">
            <path stroke-linejoin="miter" stroke-linecap="butt" stroke-miterlimit="4" stroke-width="2.1333"
                d="M31.45 16.067c0 8.045-6.766 14.63-15.191 14.63s-15.191-6.585-15.191-14.63c0-8.045 6.766-14.63 15.191-14.63s15.191 6.585 15.191 14.63z">
            </path>
            <path stroke-linejoin="miter" stroke-linecap="round" stroke-miterlimit="4" stroke-width="2.1333"
                d="M6.894 16.322l14.227-9.813"></path>
            <path stroke-linejoin="miter" stroke-linecap="round" stroke-miterlimit="4" stroke-width="2.1333"
                d="M7.059 16.412l14.227 9.813"></path>
        </symbol>
        <symbol id="close" viewBox="0 0 32 32">
            <path
                d="M32 3.223l-3.223-3.223-12.777 12.777-12.777-12.777-3.223 3.223 12.777 12.777-12.777 12.777 3.223 3.223 12.777-12.777 12.777 12.777 3.223-3.223-12.777-12.777 12.777-12.777z">
            </path>
        </symbol>
        <symbol id="facebook" viewBox="0 0 31 32">
            <path
                d="M18.98 17.012l0.402-2.585h-2.471v-1.681c0-0.707 0.346-1.398 1.453-1.398h1.123v-2.202c-0.666-0.107-1.338-0.165-2.012-0.174-2.036 0-3.364 1.24-3.364 3.482v1.971h-2.266v2.585h2.266v6.253h2.801v-6.253h2.068z">
            </path>
        </symbol>
        <symbol id="instagram" viewBox="0 0 31 32">
            <path
                d="M18.742 11.239c-0.157 0-0.311 0.048-0.442 0.139s-0.233 0.22-0.293 0.371c-0.060 0.151-0.076 0.317-0.045 0.477s0.106 0.307 0.218 0.423c0.111 0.116 0.253 0.194 0.407 0.226s0.314 0.016 0.459-0.047c0.145-0.063 0.269-0.168 0.357-0.304s0.134-0.295 0.134-0.459c0-0.219-0.084-0.429-0.233-0.584s-0.351-0.242-0.562-0.242z">
            </path>
            <path
                d="M15.219 12.3c-0.659 0-1.303 0.203-1.851 0.584s-0.975 0.921-1.227 1.554c-0.252 0.633-0.318 1.329-0.189 2.001s0.447 1.288 0.913 1.773c0.466 0.484 1.060 0.813 1.707 0.947s1.317 0.064 1.925-0.199c0.609-0.263 1.129-0.707 1.494-1.277s0.56-1.24 0.56-1.924c-0.001-0.918-0.353-1.797-0.977-2.445s-1.472-1.013-2.355-1.013zM15.219 17.977c-0.423 0.001-0.836-0.129-1.188-0.372s-0.626-0.59-0.788-0.995c-0.162-0.405-0.205-0.852-0.123-1.283s0.285-0.827 0.584-1.137 0.679-0.522 1.094-0.608c0.414-0.086 0.844-0.042 1.235 0.126s0.724 0.452 0.959 0.817c0.235 0.365 0.36 0.794 0.36 1.233 0.001 0.292-0.052 0.582-0.159 0.852s-0.263 0.516-0.461 0.724-0.434 0.372-0.693 0.484c-0.259 0.113-0.538 0.171-0.819 0.171v-0.012z">
            </path>
            <path
                d="M17.874 22.785h-5.41c-1.076-0.002-2.108-0.448-2.868-1.239s-1.188-1.863-1.189-2.982v-5.61c0.001-1.118 0.429-2.191 1.189-2.982s1.792-1.237 2.868-1.239h5.41c1.077 0.001 2.109 0.446 2.871 1.237s1.19 1.864 1.191 2.983v5.61c-0.001 1.119-0.429 2.192-1.191 2.983s-1.794 1.236-2.871 1.237zM12.464 10.048c-0.739 0.002-1.447 0.308-1.97 0.851s-0.817 1.279-0.819 2.047v5.61c0.002 0.768 0.297 1.504 0.819 2.047s1.231 0.849 1.97 0.851h5.41c0.739-0.002 1.447-0.308 1.97-0.851s0.817-1.279 0.819-2.047v-5.602c0-0.769-0.294-1.507-0.816-2.052s-1.232-0.852-1.973-0.854h-5.41z">
            </path>
        </symbol>
        <symbol id="pinterest" viewBox="0 0 31 32">
            <path
                d="M14.406 18.297c0 0.040-0.020 0.077-0.031 0.109-0.508 2.060-0.562 2.516-1.082 3.469-0.249 0.452-0.53 0.886-0.84 1.296-0.035 0.048-0.070 0.105-0.141 0.093s-0.082-0.089-0.090-0.153c-0.087-0.623-0.124-1.253-0.109-1.882 0.027-0.808 0.125-1.102 1.148-5.557 0.012-0.063 0.004-0.128-0.023-0.186-0.254-0.665-0.281-1.4-0.078-2.084 0.465-1.518 2.128-1.615 2.421-0.38 0.18 0.775-0.297 1.789-0.66 3.287-0.301 1.24 1.105 2.12 2.312 1.212 1.109-0.832 1.539-2.827 1.457-4.244-0.16-2.827-3.151-3.433-5.049-2.524-2.175 1.042-2.671 3.832-1.687 5.105 0.125 0.162 0.219 0.263 0.18 0.428-0.066 0.254-0.121 0.509-0.187 0.763-0.009 0.042-0.027 0.082-0.053 0.115s-0.060 0.060-0.098 0.078c-0.038 0.018-0.080 0.026-0.121 0.024s-0.082-0.014-0.119-0.035c-0.355-0.15-0.667-0.392-0.906-0.703-0.836-1.070-1.074-3.182 0.027-4.971 1.222-1.983 3.495-2.787 5.573-2.54 2.48 0.291 4.046 2.043 4.339 4.038 0.133 0.905 0.039 3.134-1.191 4.713-1.414 1.813-3.706 1.934-4.764 0.808-0.094-0.093-0.144-0.194-0.226-0.279z">
            </path>
        </symbol>
        <symbol id="twitter" viewBox="0 0 31 32">
            <path
                d="M23.21 10.414c-0.53 0.237-1.088 0.403-1.658 0.492 0.267-0.048 0.657-0.552 0.814-0.754 0.246-0.309 0.434-0.663 0.554-1.044 0-0.028 0.023-0.068 0-0.087-0.014-0.007-0.029-0.011-0.044-0.011s-0.030 0.004-0.044 0.011c-0.623 0.349-1.285 0.616-1.972 0.794-0.024 0.007-0.049 0.007-0.072 0s-0.045-0.021-0.061-0.040c-0.052-0.066-0.11-0.127-0.172-0.183-0.286-0.253-0.608-0.458-0.955-0.607-0.464-0.195-0.964-0.278-1.463-0.242-0.484 0.029-0.957 0.165-1.387 0.397-0.432 0.235-0.813 0.559-1.12 0.953-0.319 0.406-0.548 0.881-0.669 1.39-0.106 0.482-0.119 0.982-0.038 1.469 0 0.083-0 0.095-0.065 0.083-2.705-0.397-4.967-1.425-6.771-3.573-0.076-0.091-0.118-0.091-0.183 0-0.799 1.243-0.413 3.236 0.585 4.212 0.131 0.141 0.27 0.273 0.416 0.397-0.457-0.041-0.901-0.176-1.307-0.397-0.080-0.052-0.118-0.020-0.126 0.071-0.005 0.133 0.003 0.266 0.023 0.397 0.079 0.633 0.319 1.232 0.694 1.737s0.873 0.897 1.442 1.137c0.139 0.063 0.286 0.108 0.436 0.135-0.421 0.088-0.854 0.103-1.28 0.044-0.096 0-0.13 0.028-0.096 0.123 0.566 1.588 1.781 2.068 2.675 2.342 0.122 0.020 0.245 0.020 0.382 0.052 0 0 0 0 0 0.020-0.302 0.48-1.353 0.838-1.838 1.012-0.894 0.331-1.847 0.459-2.793 0.373-0.149-0.024-0.18-0.024-0.222 0s0 0.064 0.042 0.103c0.191 0.131 0.382 0.246 0.581 0.357 0.593 0.33 1.22 0.59 1.868 0.774 3.351 0.965 7.13 0.258 9.648-2.342 1.975-2.041 2.675-4.855 2.675-7.674 0-0.111 0.126-0.171 0.203-0.23 0.501-0.404 0.942-0.881 1.311-1.417 0.059-0.076 0.090-0.172 0.088-0.27-0.031-0.048-0.031-0.036-0.099-0.004z">
            </path>
        </symbol>
        <symbol id="down-arrow" viewBox="0 0 11 5">
            <line x1="0.5" y1="-0.5" x2="5.90045" y2="-0.5"
                transform="matrix(0.78066 0.624956 -0.624434 0.781077 0.958252 1)" stroke="white"
                stroke-linecap="round" />
            <line x1="0.5" y1="-0.5" x2="5.90045" y2="-0.5"
                transform="matrix(-0.78066 0.624956 0.624434 0.781077 10.9514 1)" stroke="white"
                stroke-linecap="round" />
        </symbol>
    </defs>
</svg>